<svg width="24" height="24" viewBox="0 0 24 24" fill="none" xmlns="http://www.w3.org/2000/svg">
<path d="M16.0145 9.00002H13.7108V7.00003C13.7108 5.96803 13.7913 5.31803 15.2092 5.31803H16.0413C16.5705 5.31803 17 4.87003 17 4.31803V3.06404C17 2.54104 16.6156 2.09404 16.1151 2.05904C15.5361 2.01804 14.9561 1.99904 14.3751 2.00004C11.7742 2.00004 9.87604 3.65703 9.87604 6.69903V9.00002H7.95868C7.42949 9.00002 7 9.44802 7 10V12C7 12.552 7.42949 13 7.95868 13L9.87604 12.999V21C9.87604 21.552 10.3055 22 10.8347 22H12.7521C13.2813 22 13.7108 21.552 13.7108 21V12.997L15.7949 12.996C16.2819 12.996 16.6913 12.615 16.7469 12.11L16.9664 10.114C17.0326 9.52102 16.5878 9.00002 16.0145 9.00002Z" fill="black" fill-opacity="0.6"/>
</svg>
