<svg width="24" height="24" viewBox="0 0 24 24" fill="none" xmlns="http://www.w3.org/2000/svg">
<path d="M20.5727 3.01066C20.2402 2.9754 19.8789 3.02731 19.5158 3.17082C19.0657 3.34783 12.0128 6.31416 5.4383 9.08133L3.26592 9.99544C2.42472 10.3365 2 10.8911 2 11.6381C2 12.1611 2.2214 12.8706 3.27764 13.2886L6.94451 14.7574C7.26159 15.7085 7.99804 17.9167 8.18308 18.5038C8.29311 18.8518 8.57102 19.7285 9.27318 19.9335C9.41721 19.9825 9.56751 20.0078 9.72055 20.0078C10.1637 20.0078 10.4827 19.8016 10.6387 19.6816L12.9694 17.7107L15.8001 20.3281C15.9091 20.4391 16.4862 21 17.2614 21C18.2286 21 18.9623 20.195 19.1153 19.4159C19.1983 18.9889 21.9285 5.28613 21.9285 5.28813C22.1735 4.18907 21.7329 3.61893 21.4498 3.37591C21.2073 3.1684 20.9051 3.04591 20.5727 3.01066ZM19.9104 5.17094C19.5333 7.06105 17.4777 17.378 17.1656 18.8651L13.028 15.0387L10.2207 17.4158L10.9982 14.3746C10.9982 14.3746 16.362 8.94615 16.6851 8.63013C16.9451 8.37711 16.9996 8.28842 16.9996 8.20042C16.9996 8.08341 16.9394 7.99923 16.8003 7.99923C16.6753 7.99923 16.5055 8.11902 16.4155 8.17502C15.2719 8.88788 10.4021 11.6617 8.00531 13.0249L4.52793 11.6362L6.21583 10.9271C10.5158 9.11703 18.174 5.89298 19.9104 5.17094Z" fill="black" fill-opacity="0.6"/>
</svg>
