<svg width="24" height="24" viewBox="0 0 24 24" fill="none" xmlns="http://www.w3.org/2000/svg">
<g style="mix-blend-mode:luminosity">
<path d="M12 22C16.027 22 19.4838 19.5305 21 16H3C4.51621 19.5305 7.97299 22 12 22Z" fill="url(#paint0_linear_3982_20753)"/>
<path d="M11.9998 2C7.97285 2 4.51617 4.4695 3 8H21C19.4833 4.4695 16.0267 2 11.9998 2Z" fill="url(#paint1_linear_3982_20753)"/>
<path d="M21.162 8H2.838C2.302 9.2255 2 10.577 2 12C2 13.423 2.302 14.7745 2.838 16H21.1625C21.698 14.7745 22 13.423 22 12C22 10.577 21.698 9.2255 21.162 8Z" fill="url(#paint2_linear_3982_20753)"/>
</g>
<defs>
<linearGradient id="paint0_linear_3982_20753" x1="2.99853" y1="7.324" x2="16.9663" y2="21.0448" gradientUnits="userSpaceOnUse">
<stop stop-color="#F44F5A"/>
<stop offset="0.443" stop-color="#EE3D4A"/>
<stop offset="1" stop-color="#E52030"/>
</linearGradient>
<linearGradient id="paint1_linear_3982_20753" x1="7.34566" y1="2.775" x2="21.3079" y2="16.49" gradientUnits="userSpaceOnUse">
<stop stop-color="#DFE9F2"/>
<stop offset="0.998" stop-color="#9EA7B0"/>
</linearGradient>
<linearGradient id="paint2_linear_3982_20753" x1="5.0045" y1="5.0045" x2="19.0955" y2="19.0955" gradientUnits="userSpaceOnUse">
<stop stop-color="#4AB7FF"/>
<stop offset="1" stop-color="#007AD9"/>
</linearGradient>
</defs>
</svg>
