<svg width="202" height="50" viewBox="0 0 202 50" fill="none" xmlns="http://www.w3.org/2000/svg">
<g clip-path="url(#clip0_3982_20751)">
<path d="M29.9096 0.741843C30.0535 0.514532 30.2522 0.327358 30.4874 0.197675C30.7226 0.0679929 30.9867 0 31.255 0C31.5234 0 31.7874 0.0679929 32.0226 0.197675C32.2578 0.327358 32.4566 0.514532 32.6005 0.741843L62.2606 47.5377C62.4142 47.78 62.5 48.0593 62.5092 48.3463C62.5184 48.6334 62.4505 48.9176 62.3127 49.1693C62.1749 49.421 61.9722 49.6309 61.7258 49.777C61.4794 49.9231 61.1985 50.0002 60.9123 50H1.59776C1.31157 50.0002 1.03059 49.9231 0.784232 49.777C0.537869 49.6309 0.335174 49.421 0.197354 49.1693C0.0595346 48.9176 -0.00834449 48.6334 0.000818919 48.3463C0.00998232 48.0593 0.0958517 47.78 0.249442 47.5377L29.9096 0.741843Z" fill="url(#paint0_linear_3982_20751)"/>
<path d="M29.9121 15.276C30.0562 15.0488 30.2548 14.8618 30.4895 14.7323C30.7242 14.6028 30.9874 14.5349 31.255 14.5349C31.5226 14.5349 31.7858 14.6028 32.0205 14.7323C32.2552 14.8618 32.4538 15.0488 32.5979 15.276L53.0003 47.5321C53.1535 47.7747 53.2392 48.0544 53.2484 48.3418C53.2577 48.6293 53.1902 48.914 53.053 49.1661C52.9158 49.4183 52.7139 49.6287 52.4684 49.7754C52.2229 49.9221 51.9428 49.9997 51.6574 50H10.8526C10.5672 49.9997 10.2871 49.9221 10.0416 49.7754C9.79614 49.6287 9.59424 49.4183 9.45703 49.1661C9.31982 48.914 9.25232 48.6293 9.26158 48.3418C9.27085 48.0544 9.35654 47.7747 9.5097 47.5321L29.9121 15.276Z" fill="url(#paint1_linear_3982_20751)"/>
<path d="M29.9024 30.396C30.0469 30.1678 30.2467 29.9798 30.4832 29.8496C30.7196 29.7194 30.9851 29.6511 31.2549 29.6511C31.5247 29.6511 31.7902 29.7194 32.0267 29.8496C32.2631 29.9798 32.4629 30.1678 32.6075 30.396L43.4506 47.5373C43.604 47.7799 43.6895 48.0592 43.6983 48.3462C43.7071 48.6332 43.6389 48.9173 43.5007 49.1688C43.3625 49.4204 43.1595 49.6302 42.9128 49.7764C42.6661 49.9226 42.3848 49.9998 42.0981 50H20.4117C20.1251 49.9998 19.8437 49.9226 19.597 49.7764C19.3503 49.6302 19.1473 49.4204 19.0091 49.1688C18.871 48.9173 18.8027 48.6332 18.8115 48.3462C18.8204 48.0592 18.9059 47.7799 19.0592 47.5373L29.9024 30.396Z" fill="url(#paint2_linear_3982_20751)"/>
<path d="M29.9028 42.0474C30.045 41.8126 30.2439 41.6187 30.4806 41.4842C30.7173 41.3497 30.9839 41.2791 31.255 41.2791C31.5261 41.2791 31.7927 41.3497 32.0294 41.4842C32.2661 41.6187 32.465 41.8126 32.6071 42.0474L35.9391 47.5379C36.0871 47.7825 36.1683 48.0627 36.1744 48.3498C36.1805 48.6369 36.1112 48.9204 35.9738 49.1712C35.8363 49.422 35.6356 49.631 35.3924 49.7767C35.1491 49.9224 34.8721 49.9994 34.5899 50H27.9201C27.6378 49.9994 27.3608 49.9224 27.1176 49.7767C26.8743 49.631 26.6736 49.422 26.5362 49.1712C26.3987 48.9204 26.3295 48.6369 26.3356 48.3498C26.3417 48.0627 26.4229 47.7825 26.5708 47.5379L29.9028 42.0474Z" fill="url(#paint3_linear_3982_20751)"/>
<path fill-rule="evenodd" clip-rule="evenodd" d="M73.3119 18.4181C73.7493 18.5026 74.1778 18.5911 74.6011 18.6785L74.6011 18.6785C75.5366 18.8716 76.4469 19.0596 77.3737 19.1881C79.9849 19.573 82.6163 19.8093 85.2623 19.538C85.5183 19.5268 85.7696 19.4654 86.0022 19.3572C86.2335 19.2493 86.418 19.0607 86.5215 18.8264C86.6056 18.4939 86.301 18.3073 86.0109 18.2431C85.2623 18.0798 84.5109 17.9194 83.7508 17.8173C83.5214 17.7867 83.292 17.7566 83.0626 17.7265L83.0626 17.7265C80.7352 17.4214 78.41 17.1166 76.2074 16.2511C75.3625 15.9582 74.6044 15.4568 74.0024 14.7929C73.6605 14.3776 73.4047 13.8978 73.2501 13.3816C73.0955 12.8655 73.0453 12.3234 73.1023 11.7875C73.1594 11.2515 73.3226 10.7324 73.5823 10.2608C73.842 9.7892 74.193 9.37462 74.6146 9.0415C75.8714 8.11499 77.3172 7.48046 78.8476 7.18368C80.6499 6.80452 82.4905 6.64103 84.331 6.69662C86.3225 6.68243 88.3115 6.84149 90.2758 7.17201C90.7123 7.25481 91.1452 7.35642 91.5785 7.45815C91.9083 7.53558 92.2384 7.61308 92.5707 7.6824C92.8841 7.74657 93.0117 7.86323 92.974 8.23071C92.8144 9.73272 92.6839 11.2435 92.562 12.7513C92.5426 12.8502 92.5164 12.9477 92.4837 13.043C92.3135 12.9991 92.1453 12.9573 91.9786 12.9158L91.9784 12.9157L91.9783 12.9157C91.6903 12.844 91.4069 12.7735 91.1259 12.6959C88.3203 11.9172 85.4538 11.7393 82.5612 11.8209C82.1564 11.8492 81.7557 11.9206 81.3659 12.0338C81.2128 12.0504 81.0712 12.1233 80.9683 12.2385C80.8655 12.3538 80.8087 12.5032 80.8088 12.658C80.8088 13.0138 81.1396 13.1655 81.4239 13.2413C82.1144 13.4017 82.8107 13.5329 83.5071 13.6438C84.2115 13.7657 84.9172 13.8824 85.623 13.9991L85.623 13.9991C87.0277 14.2314 88.4329 14.4638 89.829 14.7375C90.967 14.9682 92.0377 15.457 92.9595 16.1666C94.0301 16.9803 94.4101 18.1002 94.3347 19.3981C94.1809 21.6642 92.7245 22.8775 90.7835 23.6532C88.8446 24.3898 86.7835 24.7472 84.7111 24.7061C82.3436 24.7061 79.9733 24.6245 77.6174 24.4145C76.5083 24.3163 75.3992 24.0478 74.2966 23.7807C73.957 23.6985 73.6181 23.6164 73.28 23.5395C73.1378 23.5103 72.9173 23.3004 72.9289 23.1866C73.023 21.9092 73.1305 20.6106 73.2375 19.3189L73.2375 19.3189L73.3119 18.4181ZM155.407 24.0958C155.324 24.0958 155.248 24.103 155.176 24.1098C155.111 24.116 155.048 24.122 154.984 24.122H147.846C147.695 24.1437 147.542 24.105 147.419 24.0141C147.296 23.9233 147.214 23.7876 147.191 23.6366C147.086 23.2745 146.967 22.9196 146.849 22.5654L146.849 22.5652L146.849 22.565C146.729 22.2057 146.609 21.8473 146.504 21.4829C146.496 21.4171 146.476 21.3536 146.443 21.296C146.41 21.2385 146.367 21.188 146.314 21.1477C146.262 21.1073 146.202 21.0779 146.138 21.0611C146.074 21.0443 146.008 21.0405 145.942 21.0498C143.198 21.0634 140.456 21.0634 137.717 21.0498C137.578 21.0271 137.436 21.0605 137.322 21.1428C137.207 21.225 137.13 21.3494 137.106 21.4887C136.992 21.8761 136.867 22.2591 136.742 22.6417L136.742 22.6418C136.619 23.017 136.497 23.3919 136.385 23.7703C136.312 24.0145 136.202 24.1191 135.95 24.1162H128.447C128.365 24.1073 128.284 24.0927 128.204 24.0726C128.329 23.7305 128.451 23.3918 128.571 23.0559L128.571 23.0555L128.571 23.0545L128.572 23.0523C128.642 22.8557 128.713 22.6601 128.783 22.4653C130.654 17.4564 132.524 12.4476 134.392 7.43875C134.429 7.29472 134.516 7.16885 134.638 7.08416C134.759 7.00072 134.906 6.96454 135.052 6.98243H148.567C148.699 6.9631 148.834 6.99333 148.945 7.06735C149.056 7.14136 149.136 7.25395 149.17 7.38353C151.221 12.8594 153.272 18.3313 155.323 23.7994C155.35 23.8597 155.365 23.923 155.383 23.9988C155.39 24.029 155.398 24.0611 155.407 24.0958ZM144.754 16.1669C143.778 13.1936 142.831 10.3104 141.883 7.44747H141.742C140.776 10.354 139.817 13.2692 138.865 16.1931L144.754 16.1669ZM95.5044 7.26743H109.093C109.854 12.866 110.613 18.4519 111.372 24.0252H111.531C112.277 18.4519 113.022 12.867 113.767 7.27034H127.335V24.3749H120.095V7.62293L119.959 7.60253C119.922 7.71613 119.892 7.83194 119.869 7.94928C119.024 13.2856 118.185 18.6219 117.353 23.9582L117.352 23.9596C117.309 24.2327 117.28 24.4186 116.909 24.4186H105.875C105.786 24.4186 105.693 24.4186 105.56 24.3924L102.916 7.62001H102.771V24.3895H95.5015L95.5044 7.26743ZM178.559 24.094L173.865 18.4872C174.061 18.3875 174.252 18.2958 174.437 18.2064L174.437 18.2062C174.777 18.0427 175.099 17.887 175.412 17.7046C176.961 16.7852 177.924 15.4526 178.021 13.5846C178.151 11.2017 177.038 9.52871 175.026 8.43763C173.127 7.39601 171.046 7.03231 168.922 7.00903C165.76 6.97246 162.598 6.9754 159.437 6.97834C158.575 6.97914 157.712 6.97994 156.85 6.97994C156.275 6.97994 156.275 6.97994 156.275 7.57931V24.0823H163.668V16.1101C163.739 16.1883 163.799 16.2515 163.85 16.3061C163.93 16.3915 163.991 16.4558 164.047 16.5233C166.057 18.8994 168.057 21.2833 170.045 23.675C170.154 23.8238 170.297 23.9428 170.462 24.0212C170.627 24.1009 170.809 24.1369 170.991 24.126H178.076C178.138 24.126 178.199 24.1196 178.267 24.1125C178.35 24.1037 178.443 24.094 178.559 24.094ZM168.243 15.3595H163.645C163.645 15.1539 163.644 14.9493 163.644 14.7456C163.644 13.7323 163.643 12.74 163.662 11.7516C163.685 11.6891 163.723 11.6338 163.774 11.5909C163.824 11.5481 163.885 11.5192 163.949 11.5072C164.324 11.5107 164.699 11.511 165.075 11.5113H165.075C166.281 11.5124 167.49 11.5135 168.689 11.6178C168.964 11.623 169.235 11.6942 169.478 11.8256C169.721 11.9569 169.93 12.1447 170.087 12.3734C170.245 12.6022 170.347 12.8655 170.384 13.1418C170.422 13.418 170.395 13.6994 170.304 13.9629C170.231 14.2351 170.091 14.4842 169.897 14.6875C169.704 14.8908 169.463 15.0418 169.198 15.1267C168.895 15.2579 168.572 15.3366 168.243 15.3595ZM179.706 6.97673H179.158C179.158 7.35076 179.159 7.72159 179.16 8.08991C179.162 9.3305 179.165 10.5427 179.138 11.7531C179.129 12.155 179.25 12.2628 179.64 12.2628H185.462H185.987V24.1279H193.339V12.2744H193.838C194.496 12.2744 195.153 12.2721 195.811 12.2699C197.125 12.2653 198.44 12.2608 199.755 12.2744C200.148 12.2773 200.263 12.155 200.263 11.7589C200.24 10.3512 200.24 8.94455 200.263 7.53883C200.274 7.11362 200.171 6.97673 199.723 6.97673H179.706Z" fill="black"/>
<path fill-rule="evenodd" clip-rule="evenodd" d="M87.9138 43.6049C86.043 43.6049 84.5054 42.9883 83.301 41.755C82.0966 40.5335 81.4945 39.0183 81.4945 37.2096C81.4945 35.4008 82.0966 33.8856 83.301 32.6641C84.5054 31.4308 86.043 30.8142 87.9138 30.8142C89.0247 30.8142 90.0536 31.0844 91.0008 31.6246C91.9479 32.1649 92.6845 32.8931 93.2107 33.8093L91.79 34.6373C91.4392 33.9561 90.9131 33.4158 90.2115 33.0165C89.5216 32.6054 88.7557 32.3998 87.9138 32.3998C86.4873 32.3998 85.3297 32.8579 84.4411 33.774C83.5524 34.6784 83.1081 35.8236 83.1081 37.2096C83.1081 38.5838 83.5524 39.7231 84.4411 40.6275C85.3297 41.5436 86.4873 42.0017 87.9138 42.0017C88.7557 42.0017 89.5216 41.802 90.2115 41.4026C90.9131 40.9916 91.4392 40.4513 91.79 39.7818L93.2107 40.5922C92.6962 41.5084 91.9654 42.2424 91.0183 42.7945C90.0829 43.3348 89.0481 43.6049 87.9138 43.6049ZM96.2164 32.6817C94.9887 33.915 94.3748 35.4243 94.3748 37.2096C94.3748 38.9714 94.9887 40.4806 96.2164 41.7374C97.4442 42.9824 98.9467 43.6049 100.724 43.6049C102.501 43.6049 104.004 42.9824 105.232 41.7374C106.471 40.4924 107.091 38.9831 107.091 37.2096C107.091 35.4243 106.471 33.915 105.232 32.6817C104.004 31.4367 102.501 30.8142 100.724 30.8142C98.9467 30.8142 97.4442 31.4367 96.2164 32.6817ZM104.092 33.7917C105.004 34.7078 105.46 35.8471 105.46 37.2096C105.46 38.5485 105.004 39.6878 104.092 40.6275C103.203 41.5436 102.08 42.0017 100.724 42.0017C99.3794 42.0017 98.251 41.5436 97.339 40.6275C96.4386 39.6878 95.9884 38.5485 95.9884 37.2096C95.9884 35.8588 96.4386 34.7195 97.339 33.7917C98.251 32.8638 99.3794 32.3998 100.724 32.3998C102.08 32.3998 103.203 32.8638 104.092 33.7917ZM112.57 43.6049C111.424 43.6049 110.442 43.3406 109.624 42.8121C108.817 42.2718 108.25 41.526 107.922 40.5746L109.326 39.7642C109.793 41.2558 110.887 42.0017 112.605 42.0017C113.436 42.0017 114.073 41.8314 114.517 41.4907C114.973 41.1501 115.201 40.6862 115.201 40.0989C115.201 39.5234 114.979 39.0829 114.535 38.7776C114.137 38.5074 113.395 38.1962 112.307 37.8438L111.132 37.4562C110.875 37.3505 110.536 37.1978 110.115 36.9981C109.706 36.7867 109.407 36.5753 109.22 36.3639C108.706 35.8001 108.449 35.113 108.449 34.3026C108.449 33.222 108.823 32.3763 109.571 31.7656C110.319 31.1313 111.231 30.8142 112.307 30.8142C113.266 30.8142 114.108 31.055 114.833 31.5365C115.558 32.0181 116.102 32.6758 116.464 33.5098L115.096 34.3026C114.57 33.0341 113.64 32.3998 112.307 32.3998C111.641 32.3998 111.103 32.5643 110.694 32.8931C110.284 33.222 110.08 33.6683 110.08 34.2321C110.08 34.7724 110.273 35.1835 110.659 35.4654C111.056 35.759 111.723 36.0526 112.658 36.3463L113.377 36.5753C113.775 36.728 113.991 36.8102 114.026 36.822C114.4 36.9629 114.809 37.1567 115.254 37.4034C115.57 37.5795 115.885 37.8497 116.201 38.2138C116.61 38.6249 116.815 39.2415 116.815 40.0637C116.815 41.1443 116.423 42.0075 115.64 42.6535C114.845 43.2878 113.821 43.6049 112.57 43.6049ZM132.045 43.6049C130.899 43.6049 129.917 43.3406 129.099 42.8121C128.292 42.2718 127.725 41.526 127.397 40.5746L128.8 39.7642C129.268 41.2558 130.361 42.0017 132.08 42.0017C132.91 42.0017 133.548 41.8314 133.992 41.4907C134.448 41.1501 134.676 40.6862 134.676 40.0989C134.676 39.5234 134.454 39.0829 134.01 38.7776C133.612 38.5074 132.869 38.1962 131.782 37.8438L130.607 37.4562C130.35 37.3505 130.011 37.1978 129.59 36.9981C129.18 36.7867 128.882 36.5753 128.695 36.3639C128.181 35.8001 127.923 35.113 127.923 34.3026C127.923 33.222 128.298 32.3763 129.046 31.7656C129.794 31.1313 130.706 30.8142 131.782 30.8142C132.741 30.8142 133.583 31.055 134.308 31.5365C135.033 32.0181 135.576 32.6758 135.939 33.5098L134.571 34.3026C134.045 33.0341 133.115 32.3998 131.782 32.3998C131.116 32.3998 130.578 32.5643 130.168 32.8931C129.759 33.222 129.555 33.6683 129.555 34.2321C129.555 34.7724 129.747 35.1835 130.133 35.4654C130.531 35.759 131.197 36.0526 132.133 36.3463L132.852 36.5753C133.249 36.728 133.466 36.8102 133.501 36.822C133.875 36.9629 134.284 37.1567 134.729 37.4034C135.044 37.5795 135.36 37.8497 135.676 38.2138C136.085 38.6249 136.29 39.2415 136.29 40.0637C136.29 41.1443 135.898 42.0075 135.114 42.6535C134.319 43.2878 133.296 43.6049 132.045 43.6049ZM145.633 31.0433H136.776V32.5937H140.389V43.3759H142.003V32.5937H145.633V31.0433ZM148.879 37.9143V41.8255H154.579V43.3759H147.248V31.0433H154.491V32.5937H148.879V36.3815H154.053V37.9143H148.879ZM166.195 31.0433H168.037V43.3759H166.423V33.7388L162.406 40.4513H162.196L158.179 33.7564V43.3759H156.548V31.0433H158.39L162.301 37.5619L166.195 31.0433ZM127.336 31.0433H125.512L122.18 36.822L118.847 31.0433H117.023L121.355 38.3724V43.3759H122.987V38.39L127.336 31.0433ZM74.5596 41.8255V37.9143H79.7337V36.3815H74.5596V32.5937H80.1722V31.0433H72.9285V43.3759H80.2599V41.8255H74.5596Z" fill="black"/>
</g>
<defs>
<linearGradient id="paint0_linear_3982_20751" x1="31.255" y1="-1.38224" x2="31.255" y2="58.3846" gradientUnits="userSpaceOnUse">
<stop stop-color="#00FF8B"/>
<stop offset="1" stop-color="#1A3744"/>
</linearGradient>
<linearGradient id="paint1_linear_3982_20751" x1="31.255" y1="13.1528" x2="31.255" y2="56.0134" gradientUnits="userSpaceOnUse">
<stop offset="0.07" stop-color="#00FF57"/>
<stop offset="0.28" stop-color="#00FF8B" stop-opacity="0.57"/>
<stop offset="1" stop-color="#00FFD1" stop-opacity="0"/>
</linearGradient>
<linearGradient id="paint2_linear_3982_20751" x1="31.2549" y1="28.8581" x2="31.2549" y2="53.4502" gradientUnits="userSpaceOnUse">
<stop offset="0.07" stop-color="#00FF57"/>
<stop offset="0.28" stop-color="#00FF8B" stop-opacity="0.57"/>
<stop offset="1" stop-color="#00FFD1" stop-opacity="0"/>
</linearGradient>
<linearGradient id="paint3_linear_3982_20751" x1="31.255" y1="40.9392" x2="31.255" y2="51.4787" gradientUnits="userSpaceOnUse">
<stop offset="0.07" stop-color="#00FF57"/>
<stop offset="0.28" stop-color="#00FF8B" stop-opacity="0.57"/>
<stop offset="1" stop-color="#00FFD1" stop-opacity="0"/>
</linearGradient>
<clipPath id="clip0_3982_20751">
<rect width="202" height="50" fill="white"/>
</clipPath>
</defs>
</svg>
