<svg width="56" height="47" viewBox="0 0 56 47" fill="none" xmlns="http://www.w3.org/2000/svg">
<path d="M26.7947 0.694365C26.9236 0.481602 27.1016 0.306407 27.3123 0.185024C27.5231 0.0636414 27.7596 0 28 0C28.2404 0 28.4769 0.0636414 28.6877 0.185024C28.8984 0.306407 29.0764 0.481602 29.2053 0.694365L55.7765 44.4953C55.9141 44.7221 55.9911 44.9835 55.9993 45.2521C56.0075 45.5208 55.9467 45.7869 55.8232 46.0224C55.6997 46.258 55.5181 46.4545 55.2974 46.5913C55.0767 46.7281 54.825 46.8002 54.5686 46.8H1.43136C1.17498 46.8002 0.923264 46.7281 0.702559 46.5913C0.481853 46.4545 0.300268 46.258 0.176801 46.0224C0.0533344 45.7869 -0.00747546 45.5208 0.000733633 45.2521C0.00894273 44.9835 0.0858693 44.7221 0.223464 44.4953L26.7947 0.694365Z" fill="url(#paint0_linear_3977_23297)"/>
<path d="M26.7971 14.2981C26.9262 14.0855 27.104 13.9105 27.3143 13.7893C27.5245 13.668 27.7604 13.6045 28.0001 13.6045C28.2398 13.6045 28.4756 13.668 28.6859 13.7893C28.8961 13.9105 29.074 14.0855 29.2031 14.2981L47.4808 44.4898C47.618 44.717 47.6947 44.9787 47.703 45.2478C47.7113 45.5168 47.6509 45.7833 47.5279 46.0193C47.405 46.2554 47.2242 46.4523 47.0042 46.5896C46.7843 46.7269 46.5334 46.7995 46.2777 46.7998H9.72244C9.46676 46.7995 9.21586 46.7269 8.99594 46.5896C8.77602 46.4523 8.59516 46.2554 8.47223 46.0193C8.34931 45.7833 8.28884 45.5168 8.29714 45.2478C8.30544 44.9787 8.38221 44.717 8.51942 44.4898L26.7971 14.2981Z" fill="url(#paint1_linear_3977_23297)"/>
<path d="M26.7883 28.4506C26.9178 28.237 27.0968 28.0611 27.3086 27.9392C27.5204 27.8173 27.7582 27.7534 28 27.7534C28.2417 27.7534 28.4795 27.8173 28.6913 27.9392C28.9031 28.0611 29.0821 28.237 29.2116 28.4506L38.9256 44.4948C39.0629 44.7219 39.1395 44.9834 39.1474 45.252C39.1553 45.5206 39.0942 45.7865 38.9704 46.022C38.8466 46.2575 38.6648 46.4538 38.4437 46.5907C38.2227 46.7275 37.9707 46.7998 37.7139 46.7999H18.286C18.0292 46.7998 17.7772 46.7275 17.5562 46.5907C17.3352 46.4538 17.1533 46.2575 17.0295 46.022C16.9057 45.7865 16.8446 45.5206 16.8525 45.252C16.8604 44.9834 16.937 44.7219 17.0743 44.4948L26.7883 28.4506Z" fill="url(#paint2_linear_3977_23297)"/>
<path d="M26.7886 39.3564C26.916 39.1366 27.0941 38.9551 27.3062 38.8292C27.5182 38.7033 27.7571 38.6372 27.9999 38.6372C28.2428 38.6372 28.4817 38.7033 28.6937 38.8292C28.9057 38.9551 29.0839 39.1366 29.2112 39.3564L32.1963 44.4955C32.3288 44.7244 32.4016 44.9867 32.407 45.2554C32.4125 45.5241 32.3504 45.7895 32.2273 46.0243C32.1042 46.259 31.9244 46.4547 31.7065 46.591C31.4885 46.7273 31.2404 46.7995 30.9875 46.8H25.0124C24.7595 46.7995 24.5113 46.7273 24.2934 46.591C24.0755 46.4547 23.8957 46.259 23.7726 46.0243C23.6494 45.7895 23.5874 45.5241 23.5929 45.2554C23.5983 44.9867 23.6711 44.7244 23.8036 44.4955L26.7886 39.3564Z" fill="url(#paint3_linear_3977_23297)"/>
<defs>
<linearGradient id="paint0_linear_3977_23297" x1="28" y1="-1.29378" x2="28" y2="54.6479" gradientUnits="userSpaceOnUse">
<stop stop-color="#00FF8B"/>
<stop offset="1" stop-color="#1A3744"/>
</linearGradient>
<linearGradient id="paint1_linear_3977_23297" x1="28.0001" y1="12.3108" x2="28.0001" y2="52.4283" gradientUnits="userSpaceOnUse">
<stop offset="0.07" stop-color="#00FF57"/>
<stop offset="0.28" stop-color="#00FF8B" stop-opacity="0.57"/>
<stop offset="1" stop-color="#00FFD1" stop-opacity="0"/>
</linearGradient>
<linearGradient id="paint2_linear_3977_23297" x1="28" y1="27.0111" x2="28" y2="50.0294" gradientUnits="userSpaceOnUse">
<stop offset="0.07" stop-color="#00FF57"/>
<stop offset="0.28" stop-color="#00FF8B" stop-opacity="0.57"/>
<stop offset="1" stop-color="#00FFD1" stop-opacity="0"/>
</linearGradient>
<linearGradient id="paint3_linear_3977_23297" x1="27.9999" y1="38.3191" x2="27.9999" y2="48.1841" gradientUnits="userSpaceOnUse">
<stop offset="0.07" stop-color="#00FF57"/>
<stop offset="0.28" stop-color="#00FF8B" stop-opacity="0.57"/>
<stop offset="1" stop-color="#00FFD1" stop-opacity="0"/>
</linearGradient>
</defs>
</svg>
