<svg width="58" height="46" viewBox="0 0 58 46" fill="none" xmlns="http://www.w3.org/2000/svg">
<path d="M27.7498 0.683341C27.8835 0.47395 28.0682 0.301537 28.2868 0.182083C28.5053 0.0626291 28.7506 0 29 0C29.2493 0 29.4947 0.0626291 29.7132 0.182083C29.9318 0.301537 30.1165 0.47395 30.2502 0.683341L57.7692 43.7362C57.9113 43.9588 57.9907 44.2153 57.9992 44.4789C58.0078 44.7424 57.945 45.0034 57.8176 45.2346C57.6902 45.4659 57.5028 45.6589 57.2749 45.7935C57.0471 45.9281 56.787 45.9994 56.522 46H1.48095C1.21567 45.9999 0.955276 45.929 0.726969 45.7946C0.498662 45.6602 0.310822 45.4673 0.183073 45.2359C0.0553232 45.0046 -0.00764702 44.7434 0.000740806 44.4796C0.00912863 44.2158 0.0885666 43.9591 0.230756 43.7362L27.7498 0.683341Z" fill="url(#paint0_linear_3977_23292)"/>
<path d="M27.7495 14.245C27.8831 14.0364 28.0677 13.8646 28.286 13.7456C28.5043 13.6266 28.7493 13.5642 28.9984 13.5642C29.2475 13.5642 29.4926 13.6266 29.7109 13.7456C29.9292 13.8646 30.1137 14.0364 30.2473 14.245L49.1878 43.7447C49.3297 43.9665 49.409 44.222 49.4175 44.4846C49.426 44.7472 49.3634 45.0072 49.2361 45.2376C49.1088 45.4679 48.9216 45.6602 48.694 45.7943C48.4663 45.9285 48.2066 45.9995 47.9418 46.0001H10.058C9.79324 45.9995 9.53349 45.9285 9.30584 45.7943C9.07819 45.6602 8.89098 45.4679 8.76371 45.2376C8.63645 45.0072 8.5738 44.7472 8.58231 44.4846C8.59081 44.222 8.67015 43.9665 8.81206 43.7447L27.7495 14.245Z" fill="url(#paint1_linear_3977_23292)"/>
<path d="M27.7465 28.1021C27.8806 27.894 28.0658 27.7227 28.2849 27.604C28.5041 27.4853 28.75 27.4231 29 27.4231C29.2501 27.4231 29.496 27.4853 29.7151 27.604C29.9343 27.7227 30.1195 27.894 30.2536 28.1021L40.3114 43.7536C40.4532 43.975 40.5322 44.2298 40.5402 44.4914C40.5482 44.7531 40.4849 45.0122 40.3569 45.2415C40.2289 45.4709 40.0409 45.6623 39.8124 45.7957C39.5839 45.9291 39.3234 45.9996 39.0579 46H18.9422C18.6767 45.9996 18.4161 45.9291 18.1877 45.7957C17.9592 45.6623 17.7712 45.4709 17.6432 45.2415C17.5152 45.0122 17.4519 44.7531 17.4599 44.4914C17.4679 44.2298 17.5469 43.975 17.6887 43.7536L27.7465 28.1021Z" fill="url(#paint2_linear_3977_23292)"/>
<path d="M27.5927 38.7388C27.7253 38.5247 27.9106 38.348 28.131 38.2255C28.3514 38.1029 28.5997 38.0386 28.8521 38.0386C29.1045 38.0386 29.3528 38.1029 29.5732 38.2255C29.7937 38.348 29.979 38.5247 30.1115 38.7388L33.2194 43.7527C33.3572 43.976 33.4329 44.2318 33.4385 44.4939C33.4441 44.756 33.3795 45.0148 33.2514 45.2438C33.1233 45.4727 32.9362 45.6635 32.7095 45.7964C32.4827 45.9293 32.2245 45.9997 31.9615 46.0001H25.7457C25.4824 46.0002 25.2238 45.9302 24.9967 45.7975C24.7695 45.6648 24.582 45.4741 24.4535 45.245C24.325 45.016 24.2602 44.757 24.2657 44.4946C24.2712 44.2323 24.3468 43.9762 24.4848 43.7527L27.5927 38.7388Z" fill="url(#paint3_linear_3977_23292)"/>
<defs>
<linearGradient id="paint0_linear_3977_23292" x1="29" y1="-1.27388" x2="29" y2="53.7139" gradientUnits="userSpaceOnUse">
<stop stop-color="#874FFF"/>
<stop offset="0.17" stop-color="#5B1EDE"/>
<stop offset="1" stop-color="#2F1A44"/>
</linearGradient>
<linearGradient id="paint1_linear_3977_23292" x1="28.9984" y1="12.3038" x2="28.9984" y2="51.5036" gradientUnits="userSpaceOnUse">
<stop stop-color="#7443FF"/>
<stop offset="0.28" stop-color="#7000FF" stop-opacity="0.57"/>
<stop offset="1" stop-color="#6100FF" stop-opacity="0"/>
</linearGradient>
<linearGradient id="paint2_linear_3977_23292" x1="28.9992" y1="26.7012" x2="28.9992" y2="49.152" gradientUnits="userSpaceOnUse">
<stop stop-color="#7443FF"/>
<stop offset="0.28" stop-color="#7000FF" stop-opacity="0.57"/>
<stop offset="1" stop-color="#6100FF" stop-opacity="0"/>
</linearGradient>
<linearGradient id="paint3_linear_3977_23292" x1="28.8518" y1="37.7292" x2="28.8518" y2="47.351" gradientUnits="userSpaceOnUse">
<stop stop-color="#7443FF"/>
<stop offset="0.28" stop-color="#7000FF" stop-opacity="0.57"/>
<stop offset="1" stop-color="#6100FF" stop-opacity="0"/>
</linearGradient>
</defs>
</svg>
