<svg width="44" height="47" viewBox="0 0 44 47" fill="none" xmlns="http://www.w3.org/2000/svg">
<path d="M22.8107 0.138272C24.3858 0.230454 25.8297 0.967906 27.0111 2.07408C28.7175 3.77944 30.8614 5.9918 32.0865 7.32843C32.174 7.42061 32.3928 7.69716 32.3928 7.69716C32.3928 7.69716 31.8678 7.60498 31.7365 7.60498C30.7301 7.4667 29.8551 7.83543 28.9362 8.20415C27.5799 8.75724 26.4422 9.58688 25.3484 10.5548C25.0859 10.7852 24.2545 11.7071 24.2545 11.7071C24.2545 11.7071 23.9483 11.4305 23.7295 11.2922C23.3357 10.9696 22.8544 10.7391 22.3294 10.6009C21.5855 10.4165 21.0167 10.9696 20.5355 11.4766C18.304 13.7811 16.1163 16.1318 13.8848 18.4363C12.8785 19.4964 11.9159 20.5104 10.9096 21.5705C10.6908 21.8009 10.472 22.0314 10.3408 22.2618C9.64069 23.3219 9.94697 24.1055 10.7783 25.0734C11.1283 25.4421 11.5221 25.7647 11.9597 25.9952C12.8347 26.5483 13.5348 26.0413 14.1474 25.4421C15.0662 24.5664 15.8975 23.5985 16.7726 22.6767C17.0351 22.4001 17.0351 22.1697 16.8164 21.8931C16.4663 21.3861 16.4663 21.0174 16.8601 20.5565C17.0789 20.2799 17.6477 19.7268 17.6477 19.7268L25.3921 27.8388C25.3921 27.8388 24.7796 28.5302 24.3858 28.8067C24.0358 29.0833 23.5982 29.0372 23.2482 28.7606C22.9419 28.4841 22.7232 28.5302 22.4606 28.8067C20.798 30.5582 19.1353 32.3557 17.3852 34.0611C16.3788 35.029 15.2412 35.8125 13.9286 36.3195C12.9222 36.6882 11.9597 36.6882 10.9971 36.5039C10.1657 36.3656 9.29066 35.9047 8.63435 35.3055C7.10296 33.9689 5.65907 32.4479 4.25894 30.973C3.20885 29.8668 2.2025 28.7606 1.23991 27.5162C0.0585544 25.9491 -0.247724 24.1055 0.189817 22.2157C0.539849 20.6026 1.41493 19.2198 2.55254 18.0676C5.74658 14.6569 8.94063 11.2922 12.1347 7.88152C13.6223 6.31443 15.1099 4.79344 16.5976 3.22635C18.129 1.65927 19.8354 0.138272 22.0668 0C22.3731 0.138272 22.5919 0.138272 22.8107 0.138272Z" fill="#1F2552"/>
<path d="M12.047 39.1773C12.7033 39.039 13.4034 38.9007 14.016 38.7164C14.716 38.4859 15.4598 38.3015 16.1161 37.9789C17.4288 37.2875 18.5664 36.3657 19.6165 35.2135C19.879 34.9369 20.054 34.9369 20.404 35.2135C21.4104 36.1814 22.3292 36.3657 23.3793 35.2596C26.7484 31.7567 30.0737 28.2077 33.4428 24.6587C34.6679 23.3681 34.2303 22.1698 33.049 21.0175C32.8302 20.7871 32.5239 20.6488 32.2614 20.4644C31.5613 20.0035 30.7738 20.234 30.2487 20.741C29.2424 21.755 28.2798 22.769 27.3172 23.783C27.0547 24.0595 27.1422 24.2439 27.3172 24.4743C28.1048 25.5805 26.4421 26.7328 26.4421 26.7328C26.4421 26.7328 26.1796 26.5023 26.0921 26.364C23.8169 24.1056 18.6976 18.7591 18.6976 18.7591C18.6976 18.7591 19.0477 18.3442 19.3977 17.9755C20.054 17.2842 20.1853 17.2842 20.8853 17.8372C21.1916 18.0677 21.3229 17.9755 21.5417 17.7451C23.4231 15.8092 25.2607 13.7813 27.1859 11.9376C28.9361 10.2784 31.0363 9.40263 33.4428 10.094C34.4053 10.3705 35.3679 10.9697 36.068 11.6611C38.2557 13.8273 40.3559 16.0858 42.4123 18.3903C43.8562 20.0035 44.2938 22.0315 43.8125 24.1978C43.4624 25.8109 42.5873 27.1937 41.4497 28.392C36.6806 33.462 31.9114 38.4859 27.0984 43.5098C26.1358 44.5238 24.9982 45.3534 23.7294 45.9526C22.898 46.3213 21.9792 46.4135 21.0166 46.3674C19.3102 46.2752 17.9538 45.3534 16.7725 44.2012C15.1536 42.6341 13.6222 40.9287 12.047 39.2695C12.047 39.2695 12.047 39.2234 12.047 39.1773Z" fill="#1F2552"/>
</svg>
